<svg xmlns="http://www.w3.org/2000/svg" enable-background="new 0 0 500 421" viewBox="0 0 500 421"><path fill="#cce9ff" d="M217.071,45.232c-6.118,3.091-11.851,6.52-17.049,10.173c-18.172,12.762-32.79,31.34-50.647,44.141
			c-16.862,12.087-37.454,15.026-56.749,17.044c-33.633,3.522-103.78,37.295-91.115,99.893
			c4.608,22.781,20.858,38.253,29.178,58.881c8.85,21.945,7.921,49.315,22.012,68.339c6.199,8.365,14.756,13.89,23.541,18.075
			c58.465,27.841,124.12,26.548,186.115,23.478c48.93-2.422,127.519,10.38,170.498-20.881c21.338-15.522,10.242-57.952,25.007-80.74
			c12.408-19.15,29.295-31.725,37.59-55.696c14.115-40.789-6.005-93.868-41.237-108.348c-22.015-9.047-45.337-13.193-67.098-23.129
			c-22.484-10.27-31.148-25.652-48.293-43.857C307.827,19.698,255.071,26.012,217.071,45.232z"/><polygon fill="#2a94f4" points="288.855 368.872 288.842 369.011 288.7 369.979 286.396 386.289 285.049 386.345 285.357 375.234 285.4 373.801 286.496 372.241 287.604 370.655 288.813 368.927"/><path fill="#2a94f4" d="M267.799,371.245l-2.149,15.228l-1.349,0.055l-0.905-10.25l0.042-1.602l1.214-0.705l2.362-3.358
						l0.335-0.479C267.364,370.543,267.799,370.922,267.799,371.245z"/><path fill="#fcd2b1" d="M271.338,192.373c3.268,4.672,1.747,7.373,1.49,11.012c-0.342,4.827-3.48,3.566-6.072,0.739
				c-2.92-3.154,1.993-6.52-0.494-9.933c-2.017-2.773-5.541,0-5.817-1.953C260.307,191.256,268.069,187.689,271.338,192.373z"/><rect width="10.664" height="2.497" x="219.884" y="260.473" fill="#d3d3d3"/><rect width="7.28" height="7.963" x="240.318" y="224.508" fill="#d3d3d3" transform="rotate(32.75 243.972 228.492)"/><rect width="7.283" height="7.964" x="261.422" y="191.733" fill="#d3d3d3" transform="rotate(32.807 265.059 195.704)"/><rect width="5.188" height="7.963" x="264.042" y="189.292" fill="#d3d3d3" transform="rotate(32.786 266.64 193.278)"/><rect width="9.449" height="41.445" x="250.179" y="190.769" fill="#f7f7f7" transform="rotate(32.77 254.889 211.48)"/><path fill="#d3d3d3" d="M257.956,211.111c0,1.686-1.366,3.054-3.053,3.054s-3.053-1.368-3.053-3.054
					c0-1.685,1.366-3.053,3.053-3.053S257.956,209.427,257.956,211.111z"/><path fill="#f7f7f7" d="M248.613,251.239l-1.627-3.729c7.685-3.357,12.062-7.568,13.006-12.513
						c1.449-7.585-5.222-14.392-5.29-14.461l2.251-3.5c0.351,0.351,8.883,9.055,7.035,18.724
						C262.778,242.105,257.604,247.313,248.613,251.239z"/><rect width="10.82" height="5.087" x="239" y="245.559" fill="#f7f7f7" transform="rotate(27.638 244.387 248.078)"/><rect width="10.82" height="1.102" x="235.446" y="242.264" fill="#d3d3d3" transform="rotate(27.659 240.863 242.82)"/><rect width="30.785" height="5.71" x="239.062" y="257.26" fill="#d3d3d3"/><polygon fill="#f7f7f7" points="258.652 257.26 246.443 257.26 250.004 246.449 258.652 245.059"/><path fill="#d3d3d3" d="M256.805,250.058c0,1.695-1.374,3.068-3.07,3.068c-1.696,0-3.073-1.373-3.073-3.068
					c0-1.699,1.377-3.071,3.073-3.071C255.431,246.987,256.805,248.359,256.805,250.058z"/><path fill="#f1b99e" d="M249.951,325.793c-1.791-12.497-3.886-24.012-3.932-32.35c-0.008-2.8,7.81-6.654,12.5-0.624
					c4.675,6.016,6.997,16.107,6.189,27.309c-0.845,11.731-2.485,31.327-1.707,36.927c1.365,9.933,4.455,8.66,3.965,14.26
					c-0.221,2.642-5.537,4.23-11.413,7.431c-7.092,3.868-10.717,7.443-11.937,5.065c-1.373-2.65,6.395-4.151,11.112-21.112
					C256.141,357.649,251.748,338.181,249.951,325.793z"/><path fill="#2a94f4" d="M267.799,371.245c0,0.056-0.014,0.114-0.042,0.168c-1.026,2.134-2.192,3.499-3.146,4.285
					c-0.872,0.702-1.574,0.941-1.883,0.858c-1.055-0.295-2.769,0.786-5.073,3.272c-2.316,2.514-4.65,6.461-5.661,6.743
					c-2.037,0.59-13.428,1.574-14.567-0.704c-0.548-1.082,7.573-5.127,7.573-5.127s0.012,0,0.027,0
					c0.421,0.112,4.353,1.068,6.645-0.465c2.402-1.6,6.125-8.807,8.596-11.7c2.079-2.472,3.879-4.199,4.453-4.733
					c0.126-0.128,0.196-0.186,0.196-0.186s2.881,1.279,2.43,6.394v0.083C267.364,370.543,267.799,370.922,267.799,371.245z"/><path fill="#fcd2b1" d="M258.172,295.87c6.146,4.506,11.16,13.577,13.469,24.562c2.418,11.516,6.232,30.8,8.517,35.977
					c4.037,9.169,6.657,7.102,7.732,12.627c0.51,2.594-4.159,5.578-8.925,10.27c-5.771,5.671-8.265,10.1-10.083,8.15
					c-2.056-2.171,5.016-5.743,4.874-23.353c-0.039-5.222-9.622-22.747-14.739-34.161c-5.161-11.522-12.62-23.539-10.757-31.67
					C249.134,294.46,251.998,291.377,258.172,295.87z"/><path fill="#2a94f4" d="M288.842,369.011l-0.142,0.969c-0.941,3.416-2.669,5.283-3.343,5.255
					c-0.044,0-0.056,0-0.084-0.014c-1.069-0.309-2.472,1.516-3.99,4.552c-1.544,3.062-2.681,7.487-3.595,8.035
					c-1.8,1.125-12.475,5.211-14.202,3.343c-0.816-0.898,5.871-7.036,5.871-7.036s0,0,0.014,0c0.296,0,4.481-0.126,6.28-2.263
					c1.869-2.204,3.471-10.154,5.029-13.609c1.335-2.937,2.571-5.059,2.978-5.762c0.014,0,0-0.014,0-0.014
					c0.1-0.154,0.156-0.225,0.156-0.225s2.962,0.282,4.424,5.241c0.212,0.73,0.477,1.067,0.576,1.446
					C288.827,368.955,288.827,368.981,288.842,369.011z"/><path fill="#f7f7f7" d="M160.192,253.161c0,1.307,1.07,2.377,2.376,2.377c1.303,0,2.372-1.07,2.372-2.377v-27.234h-4.749
					V253.161z"/><path fill="#cce9ff" d="M160.692,252.977c0,1.033,0.843,1.872,1.876,1.872c1.03,0,1.872-0.839,1.872-1.872v-13.461
					h-3.748V252.977z"/><path fill="#d3d3d3" d="M160.176,225.242c-0.183,0-0.331,0.153-0.331,0.332v0.02c0,0.184,0.149,0.332,0.331,0.332h4.781
					c0.183,0,0.335-0.148,0.335-0.332v-0.02c0-0.179-0.152-0.332-0.335-0.332H160.176z"/><path fill="#f7f7f7" d="M171.054,253.161c0,1.307,1.069,2.377,2.374,2.377c1.305,0,2.374-1.07,2.374-2.377v-27.234
					h-4.748V253.161z"/><path fill="#0e538c" d="M171.552,252.977c0,1.033,0.845,1.872,1.876,1.872c1.031,0,1.875-0.839,1.875-1.872v-13.461
					h-3.751V252.977z"/><path fill="#d3d3d3" d="M171.037,225.242c-0.182,0-0.331,0.153-0.331,0.332v0.02c0,0.184,0.149,0.332,0.331,0.332h4.781
					c0.182,0,0.332-0.148,0.332-0.332v-0.02c0-0.179-0.15-0.332-0.332-0.332H171.037z"/><path fill="#f7f7f7" d="M181.915,253.161c0,1.307,1.068,2.377,2.373,2.377c1.306,0,2.374-1.07,2.374-2.377v-27.234
					h-4.747V253.161z"/><path fill="#2a94f4" d="M182.414,252.977c0,1.033,0.844,1.872,1.874,1.872c1.032,0,1.875-0.839,1.875-1.872v-13.461
					h-3.749V252.977z"/><path fill="#d3d3d3" d="M181.898,225.242c-0.182,0-0.332,0.153-0.332,0.332v0.02c0,0.184,0.15,0.332,0.332,0.332h4.783
					c0.181,0,0.331-0.148,0.331-0.332v-0.02c0-0.179-0.15-0.332-0.331-0.332H181.898z"/><path fill="#f7f7f7" d="M192.775,253.161c0,1.307,1.069,2.377,2.375,2.377c1.306,0,2.375-1.07,2.375-2.377v-27.234h-4.75
					V253.161z"/><path fill="#ffbe55" d="M193.276,252.977c0,1.033,0.844,1.872,1.874,1.872c1.03,0,1.874-0.839,1.874-1.872v-13.461
					h-3.748V252.977z"/><path fill="#d3d3d3" d="M192.759,225.242c-0.184,0-0.333,0.153-0.333,0.332v0.02c0,0.184,0.149,0.332,0.333,0.332h4.782
					c0.182,0,0.332-0.148,0.332-0.332v-0.02c0-0.179-0.15-0.332-0.332-0.332H192.759z"/><rect width="45.338" height="1.744" x="155.882" y="232.152" fill="#d3d3d3"/><rect width="45.338" height="3.517" x="155.805" y="255.538" fill="#d3d3d3"/><rect width="2.88" height="33.007" x="201.128" y="229.656" fill="#d3d3d3"/><rect width="2.88" height="33.007" x="152.925" y="229.656" fill="#d3d3d3"/><path fill="#fcd2b1" d="M265.76,198.525c2.309,2.975,3.611,5.754,2.996,6.336c-1.487,1.402-3.861-1.022-5.341-4.461
				c-1.84-4.264-3.662-5.82-2.999-6.319C261.07,193.559,263.466,195.543,265.76,198.525z"/><path fill="#d3d3d3" d="M324.886,212.623c-1.56,3.23-5.815,7.15-12.418,12.951c-5.001,4.411-10.116,9.161-14.79,12.895
				c-7.192,5.774-13.332,9.159-16.437,5.297c-3.23-4.06,2.542-9.764,8.933-15.214c3.641-3.104,7.487-6.124,9.975-8.693
				c6.547-6.829,15.397-19.078,21.198-15.918c0.098,0.154,0.211,0.311,0.309,0.479c0.956,1.502,1.784,3.23,2.444,5.21
				C324.395,210.572,324.676,211.556,324.886,212.623z"/><g><path fill="#fcd2b1" d="M282.389,223.204c4.388,8.284,6.234,11.015,7.994,16.854c0,0-3.24,8.276-9.217,2.982
					c-3.584-3.185-6.246-9.803-8.815-18.281c-2.379-7.85-5.269-20.173-5.269-20.173l4.09-2.075
					C271.173,202.512,277.997,214.931,282.389,223.204z"/><path fill="#d3d3d3" d="M283.328,223.432c4.388,8.281,6.48,10.51,7.055,16.626c0.245,2.572-4.547,7.18-9.83,3.159
					c-3.815-2.903-6.259-9.218-8.827-17.699c-2.377-7.844-4.826-15.829-4.826-15.829l8.08-2.84
					C274.98,206.848,278.937,215.156,283.328,223.432z"/></g><path fill="#0e538c" d="M285.498,304.455l-23.484-23.416l-18.261,6.988c0,0,18.052,23.99,21.031,25.573
				c2.973,1.578,8.222,4.578,9.331,3.299C278.792,311.516,285.498,304.455,285.498,304.455z"/><rect width="1.612" height="17.26" x="245.824" y="242.05" fill="#0e538c" transform="rotate(-149.986 246.624 250.685)"/><g><polygon fill="#0b4870" points="347.772 317.057 362.777 389.602 366.082 389.602 353.358 316.899"/></g><g><polygon fill="#0b4870" points="331.402 317.057 346.407 389.602 349.712 389.602 336.989 316.899"/></g><g><polygon fill="#0b4870" points="304.927 317.057 289.921 389.602 286.616 389.602 299.341 316.899"/></g><g><path fill="#2a94f4" d="M290.725,317.642h64.656c0,0,4.505-0.101,7.52-13.441c3.393-15.01,10.243-65.136,10.243-65.136
						s-1.816-4.662-30.238-4.065l-50.897,66.036C292.009,301.036,290.271,311.446,290.725,317.642z"/></g><path fill="#fcd2b1" d="M254.333,256.575c0,0-2.299,0.568-3.396,0.607c-1.098,0.04-6.188-2.823-7.815-2.558
				c-1.624,0.268-12.218,5.81-12.698,6.214c-0.483,0.406,0.225,1.304,0.225,1.304l24.355,0.423L254.333,256.575z"/><g><path fill="#fcd2b1" d="M296.44,196.981c0,0,0.295,0.65,0.73,1.661c0.181,0.423,0.387,0.911,0.607,1.44
					c0.172,0.401,0.348,0.828,0.527,1.268c1.128,2.775,2.382,6.144,2.564,7.818c0.345,3.129,9.106-13.288,9.106-13.288
					s-4.112-9.295-7.003-20.287C300.082,164.601,296.44,196.981,296.44,196.981z"/></g><path fill="#a77860" d="M295.772,197.745c0,0,0.337,0.63,0.838,1.61c0.209,0.409,0.451,0.883,0.704,1.394
				c5.559-4.74,6.072-9.028,5.43-9.459C300.038,195.282,295.772,197.745,295.772,197.745z"/><g><path fill="#fcd2b1" d="M279.753,170.29c0,0-0.591,8.323-0.05,10.037c0.541,1.712,1.421,2.868,1.831,4.913
						c0.426,2.122,0.195,6.962,0.81,8.064c0.741,1.333,3.48-0.438,4.7,1.762c1.217,2.199,4.91,5.848,6.025,5.562
						c2.862-0.73,12.023-8.749,11.934-11.215c-0.09-2.463-0.515-16.23-0.128-19.009c0.387-2.781-24.061-8.854-24.592-4.483
						C279.753,170.29,279.753,170.29,279.753,170.29z"/></g><path fill="#0b4870" d="M295.145,178.349c0,0-0.593-1.089,1.317-2.033c1.908-0.947,6.706,10.624,11.324,11.945
				c0,0-0.314-0.842-0.128-1.82l0,0l0,0c0.295-1.557,0.697-4.13,0.819-7.021c0.392-4.127,0.523-6.207,0.159-9.61
				c-0.71-6.643-7.872-7.939-7.872-7.939s-6.456-3.778-17.267,0.66c-10.806,4.438-8.733,11.94-5.874,14.665
				c2.971,2.832,12.09,5.135,15.698,4.829"/><g><path fill="#eea886" d="M294.097,177.943c0,0,0.427-4.678,4.909-2.934c3.262,1.27,2.413,9.203-0.242,9.884
						C296.112,185.579,293.982,181.963,294.097,177.943z"/></g><path fill="#f7f7f7" d="M330.745,306.094c-13.584-0.353-26.213,5.983-36.132,7.008c-9.2,0.97-10.507,1.504-11.209,1.614
				h-1.235c-1.391,0-3.47,0-3.47,0h-2.725c-0.351-0.251-1.911-8.861-2.865-9.565c-0.449-0.324-0.928-0.674-1.446-1.067
				c-3.934-2.922-6.456-7.542-7.412-8.847c-1.686-2.305-5.64-6.311-5.905-9.331c-0.098-1.04-1.518-3.118-1.546-3.736l8.793-2.136
				c0.69-0.212,1.421-0.437,2.193-0.661c6.657-2.064,15.816-4.789,24.246-6.924c3.104-0.786,6.096-1.505,8.836-2.081
				c2.401-0.49,1.499-2.585,2.341-6.04c1.207-4.93,3.332-12.207,1.393-17.713c-0.125-0.365-0.251-0.717-0.393-1.067
				c-1.025-2.544-2.246-4.13-3.555-5.227c-0.967-0.8-1.978-1.363-2.975-1.855c-1.672-0.814-3.346-1.446-4.751-2.823
				c-0.448-0.448-0.869-0.955-1.249-1.588c-0.393-0.632-0.7-1.348-0.941-2.146c-0.309-1.028-0.477-2.165-0.563-3.36
				c-0.026-0.744-0.026-1.488,0-2.246c0.072-1.869,0.381-3.807,0.858-5.62v-0.04c0.491-1.574,1.167-3.316,2.093-5.185
				c0-0.014,0-0.014,0-0.028c0.66-1.053,3.864-5.352,7.22-9.791c4.044-5.353,8.315-10.914,8.554-11.224c0,0,0-0.013,0.016-0.013
				c0.239,0.181,0.772,0.407,1.53,0.758c0.07,0.028,0.142,0.056,0.211,0.084c0.016,0.012,0.03,0.012,0.03,0.012
				c2.064,0.942,5.42,2.628,8.442,5.857c0.772,0.831,1.53,1.772,2.22,2.825c0.098,0.154,0.211,0.311,0.309,0.479
				c0.956,1.502,1.784,3.23,2.444,5.21c0.295,0.942,0.575,1.926,0.786,2.993c0.028,0.125,0.056,0.251,0.084,0.393
				c0.253,1.321,0.465,3.062,0.674,5.155c0.689,6.757,1.405,17.322,3.779,30.273c0.309,1.685,0.66,3.23,1.04,4.676
				c2.555,9.582,6.656,14.356,10.086,21.31c0.181,0.395,0.365,0.786,0.518,1.165c0.028,0.058,0.044,0.1,0.058,0.142
				c0.337,0.788,0.618,1.586,0.856,2.402c0.016,0,0.016,0.014,0.016,0.028C345.549,290.134,341.589,306.361,330.745,306.094z"/><g><path fill="#f2f2f2" d="M305.261,210.729c0,0-4.391,6.219-7.105,10.93c-3.077,5.341-6.099,10.613-6.766,11.8
					c-1.357,2.411-5.882,4.921-8.019,5.837c-1.965,0.844-35.01,17.145-35.425,17.108c-0.417-0.037,3.527,6.529,3.527,6.529
					s45.457-13.037,47.502-14.902c2.04-1.867,8.106-10.368,10.59-13.87c2.361-3.333,5.988-8.805,7.91-11.164
					c2.149-2.634,6.66-11.653,0.925-16.152C311.076,201.097,307.022,208.09,305.261,210.729z"/></g><g><rect width="6.032" height="127.206" x="134.048" y="264.33" fill="#0b4870" transform="rotate(-180 137.064 327.933)"/></g><g><rect width="6.032" height="127.206" x="271.098" y="264.33" fill="#0b4870" transform="rotate(-180 274.114 327.933)"/></g><path fill="#0b4870" d="M285.638,177.786c15.135-17.571,30.265,10.496,22.148,10.476
				c-8.12-0.022-17.275-6.575-17.275-6.575l-6.027-4.533"/><path fill="#d3d3d3" d="M289.575,156.655c13.425-2.037,18.548-4.746,24.113,4.472c3.895,6.443-1.17,24.491-3.634,25.531
				c-2.466,1.042-4.544-0.576-6.149-2.288c-1.206-1.281-8.534-9.941-11.986-10.278c-3.45-0.329-10.525-0.777-14.263-1.204
				c-1.165-0.128-2.647-0.908-2.516-4.47C275.267,164.846,279.986,158.118,289.575,156.655z"/><g><rect width="166.836" height="4.263" x="126.856" y="262.201" fill="#0e538c" transform="rotate(-180 210.274 264.333)"/></g></svg>