<svg xmlns="http://www.w3.org/2000/svg" viewBox="0 0 194 53"><defs><style>.cls-1{fill:#fff;}.cls-2,.cls-3{fill:#034ea2;}.cls-3{isolation:isolate;font-size:11.72px;font-family:ArialMT, Arial;}</style></defs><g id="Capa_2" data-name="Capa 2"><rect class="cls-1" width="194" height="53"/></g><g id="Capa_1" data-name="Capa 1"><circle class="cls-1" cx="37.16" cy="26.86" r="19.74"/><path class="cls-2" d="M5,5V48.46H70.19V5ZM21.09,26.09h1.73l.52-1.65.53,1.64h1.72l-1.41,1,.52,1.63-1.41-1-1.41,1,.53-1.63Zm5.54,9.75-1.41-1-1.41,1,.53-1.62-1.41-1h1.72l.52-1.65.61,1.63H27.5l-1.41,1ZM26.1,20l.53,1.62-1.41-1-1.41,1L24.34,20l-1.41-1h1.72l.52-1.65L25.7,19h1.72Zm3.83-6.22.53-1.65L31,13.76h1.72l-1.41,1,.52,1.63-1.38-1-1.41,1,.53-1.63-1.41-1Zm1.92,27.3-1.41-1-1.38,1,.52-1.62-1.41-1h1.72l.53-1.64.52,1.64h1.78l-1.41,1Zm5.2-29.21.53-1.65.53,1.65h1.72l-1.41,1,.52,1.63-1.36-1-1.41,1,.52-1.63-1.41-1ZM39,43l-1.37-1-1.41,1,.52-1.63-1.41-1H37l.52-1.64.53,1.64h1.72l-1.41,1Zm7.12-1.9-1.38-1-1.41,1,.52-1.62-1.41-1h1.72l.53-1.64.52,1.64h1.73l-1.41,1Zm-.5-26.3.52,1.63-1.41-1-1.41,1,.53-1.63-1.41-1h1.82l.53-1.65.52,1.64H47ZM49.38,19l.53-1.65L50.44,19h1.72l-1.41,1,.52,1.62-1.41-1-1.41,1L49,20l-1.41-1Zm1.9,16.92-1.41-1-1.41,1L49,34.26l-1.41-1H49.3l.52-1.65.62,1.59h1.72l-1.41,1Zm1.89-7.15-1.37-1-1.41,1,.52-1.62-1.41-1h1.76l.53-1.65.53,1.64h1.76l-1.41,1Z"/><path class="cls-2" d="M78.26,14.71V5h6.65V6.64H80.22v2.3h4v1.64h-4v4.13Z"/><path class="cls-2" d="M86.51,6.72V5h1.87V6.72Zm0,8v-7h1.87v7.05Z"/><path class="cls-2" d="M96.68,14.71H94.82V11.12a5.19,5.19,0,0,0-.12-1.47,1.07,1.07,0,0,0-.38-.53,1.22,1.22,0,0,0-.65-.18,1.58,1.58,0,0,0-.87.26,1.46,1.46,0,0,0-.53.71,6.7,6.7,0,0,0-.14,1.61v3.19H90.27v-7H92v1a2.9,2.9,0,0,1,3.45-1,2,2,0,0,1,.77.57,2.06,2.06,0,0,1,.36.78,5.86,5.86,0,0,1,.1,1.25Z"/><path class="cls-2" d="M100,9.82l-1.69-.3a2.68,2.68,0,0,1,1-1.52,3.66,3.66,0,0,1,2.07-.48,4.33,4.33,0,0,1,1.85.29,1.9,1.9,0,0,1,.86.75,3.78,3.78,0,0,1,.25,1.66V12.4a7.77,7.77,0,0,0,.09,1.36,4,4,0,0,0,.33,1h-1.84c0-.13-.1-.31-.17-.55a.5.5,0,0,0-.07-.22,3.14,3.14,0,0,1-1,.7,2.82,2.82,0,0,1-1.15.24,2.46,2.46,0,0,1-1.72-.59,2.11,2.11,0,0,1-.33-2.56,1.91,1.91,0,0,1,.79-.7,6,6,0,0,1,1.48-.43,10.22,10.22,0,0,0,1.81-.46v-.2a1,1,0,0,0-.26-.77,1.6,1.6,0,0,0-1-.23,1.25,1.25,0,0,0-.78.2A1.36,1.36,0,0,0,100,9.82Zm2.49,1.53c-.37.11-.75.2-1.13.28a3.36,3.36,0,0,0-1,.32.8.8,0,0,0-.36.66.93.93,0,0,0,.29.7,1,1,0,0,0,.71.29,1.59,1.59,0,0,0,1-.33,1.15,1.15,0,0,0,.44-.62,3.42,3.42,0,0,0,.07-.9Z"/><path class="cls-2" d="M112.51,14.71h-1.86V11.12a5.19,5.19,0,0,0-.12-1.47,1,1,0,0,0-.39-.53,1.11,1.11,0,0,0-.64-.18,1.58,1.58,0,0,0-.87.26,1.4,1.4,0,0,0-.53.71,6.23,6.23,0,0,0-.14,1.61v3.19H106.1v-7h1.73v1a2.89,2.89,0,0,1,3.44-1,1.83,1.83,0,0,1,.77.57,1.94,1.94,0,0,1,.37.78,6.59,6.59,0,0,1,.1,1.25Z"/><path class="cls-2" d="M120.53,9.75l-1.83.33a1.32,1.32,0,0,0-.43-.82,1.3,1.3,0,0,0-.85-.28,1.43,1.43,0,0,0-1.1.48,2.41,2.41,0,0,0-.42,1.6,2.82,2.82,0,0,0,.42,1.77,1.41,1.41,0,0,0,1.13.52,1.3,1.3,0,0,0,.87-.3,1.89,1.89,0,0,0,.48-1l1.82.32a3.2,3.2,0,0,1-1.09,1.89,3.36,3.36,0,0,1-2.16.65,3.23,3.23,0,0,1-2.47-1A3.77,3.77,0,0,1,114,11.2a3.82,3.82,0,0,1,.91-2.71,3.28,3.28,0,0,1,2.49-1,3.38,3.38,0,0,1,2,.55A3.08,3.08,0,0,1,120.53,9.75Z"/><path class="cls-2" d="M121.94,6.72V5h1.86V6.72Zm0,8v-7h1.86v7.05Z"/><path class="cls-2" d="M127.1,9.82l-1.69-.3a2.68,2.68,0,0,1,1-1.52,3.63,3.63,0,0,1,2.07-.48,4.33,4.33,0,0,1,1.85.29,1.9,1.9,0,0,1,.86.75,3.93,3.93,0,0,1,.25,1.66V12.4a6.22,6.22,0,0,0,.09,1.36,4,4,0,0,0,.33,1H130c-.05-.13-.11-.31-.18-.55a1.13,1.13,0,0,0-.07-.22,3.21,3.21,0,0,1-1,.7,3,3,0,0,1-1.17.24,2.41,2.41,0,0,1-1.7-.59,1.94,1.94,0,0,1-.63-1.49,2,2,0,0,1,.28-1.07,1.93,1.93,0,0,1,.8-.7,5.85,5.85,0,0,1,1.48-.43,10.22,10.22,0,0,0,1.81-.46v-.2a1,1,0,0,0-.27-.77,1.6,1.6,0,0,0-1-.23,1.11,1.11,0,0,0-1.22.88Zm2.49,1.53c-.37.11-.75.2-1.13.28a3.28,3.28,0,0,0-1,.32.8.8,0,0,0-.36.66.93.93,0,0,0,.29.7,1,1,0,0,0,.74.29,1.59,1.59,0,0,0,1-.33,1.15,1.15,0,0,0,.44-.62,3.43,3.43,0,0,0,.08-.9Z"/><path class="cls-2" d="M139.7,14.71H138v-1a2.76,2.76,0,0,1-1,.9,2.55,2.55,0,0,1-1.18.3,2.68,2.68,0,0,1-2.07-1,4,4,0,0,1-.87-2.73,3.9,3.9,0,0,1,.84-2.71,2.71,2.71,0,0,1,2.11-.93,2.58,2.58,0,0,1,2.05,1V5h1.86ZM134.77,11a3.08,3.08,0,0,0,.31,1.63,1.39,1.39,0,0,0,1.25.71,1.41,1.41,0,0,0,1.09-.55,2.43,2.43,0,0,0,.45-1.63,2.83,2.83,0,0,0-.43-1.75,1.41,1.41,0,0,0-2-.25,1.48,1.48,0,0,0-.25.25,2.39,2.39,0,0,0-.47,1.59Z"/><path class="cls-2" d="M141.1,11.09a3.87,3.87,0,0,1,.46-1.79A3.07,3.07,0,0,1,142.86,8a3.81,3.81,0,0,1,1.87-.46,3.49,3.49,0,0,1,2.61,1,3.62,3.62,0,0,1,1,2.61,3.72,3.72,0,0,1-1,2.65,3.5,3.5,0,0,1-2.6,1.08,4.13,4.13,0,0,1-1.85-.44,3,3,0,0,1-1.33-1.28A4.34,4.34,0,0,1,141.1,11.09Zm1.91.1a2.35,2.35,0,0,0,.5,1.61,1.61,1.61,0,0,0,1.22.55A1.57,1.57,0,0,0,146,12.8a2.37,2.37,0,0,0,.5-1.62,2.28,2.28,0,0,0-.5-1.59,1.61,1.61,0,0,0-2.44,0A2.31,2.31,0,0,0,143,11.19Z"/><path class="cls-2" d="M153.53,7.67h1.74v1a2.59,2.59,0,0,1,.91-.86,2.49,2.49,0,0,1,1.28-.33,2.65,2.65,0,0,1,2.11,1,3.87,3.87,0,0,1,.86,2.67,4,4,0,0,1-.86,2.74,2.71,2.71,0,0,1-2.12,1,2.27,2.27,0,0,1-1-.23,3.87,3.87,0,0,1-1-.8v3.53h-1.86Zm1.84,3.4a2.77,2.77,0,0,0,.48,1.76,1.45,1.45,0,0,0,1.14.56,1.32,1.32,0,0,0,1.08-.52,2.73,2.73,0,0,0,.43-1.71,2.48,2.48,0,0,0-.44-1.63,1.43,1.43,0,0,0-2.24,0A2.46,2.46,0,0,0,155.37,11.07Z"/><path class="cls-2" d="M161.44,11.09a3.75,3.75,0,0,1,.46-1.79A3.16,3.16,0,0,1,163.19,8a3.85,3.85,0,0,1,1.88-.46,3.49,3.49,0,0,1,2.61,1,3.57,3.57,0,0,1,1,2.61,3.62,3.62,0,0,1-1,2.65,3.5,3.5,0,0,1-2.6,1.08,4.06,4.06,0,0,1-1.84-.44,3,3,0,0,1-1.33-1.28A4.32,4.32,0,0,1,161.44,11.09Zm1.91.1a2.35,2.35,0,0,0,.5,1.61,1.64,1.64,0,0,0,2.31.13,1.59,1.59,0,0,0,.13-.13,2.37,2.37,0,0,0,.5-1.62,2.33,2.33,0,0,0-.5-1.59A1.61,1.61,0,0,0,164,9.43a1.21,1.21,0,0,0-.16.16,2.3,2.3,0,0,0-.49,1.6Z"/><path class="cls-2" d="M171.94,14.71h-1.86v-7h1.74v1a3,3,0,0,1,.8-.93,1.52,1.52,0,0,1,.8-.23,2.44,2.44,0,0,1,1.23.36l-.58,1.62a1.64,1.64,0,0,0-.87-.31,1.08,1.08,0,0,0-.67.22,1.53,1.53,0,0,0-.42.78,10.85,10.85,0,0,0-.16,2.35Z"/><path class="cls-2" d="M78.23,31V21.27h1.86V31Z"/><path class="cls-2" d="M83.39,26.09l-1.68-.3a2.56,2.56,0,0,1,1-1.51,3.54,3.54,0,0,1,2.06-.49,4.54,4.54,0,0,1,1.86.29,1.93,1.93,0,0,1,.85.75,3.8,3.8,0,0,1,.25,1.67v2.17A7.82,7.82,0,0,0,87.8,30a3.91,3.91,0,0,0,.34.94H86.3a3.58,3.58,0,0,1-.19-.55l-.06-.21a3.56,3.56,0,0,1-1,.7,2.9,2.9,0,0,1-1.16.24,2.38,2.38,0,0,1-1.71-.6A2.08,2.08,0,0,1,81.82,28a1.81,1.81,0,0,1,.8-.7,5.87,5.87,0,0,1,1.48-.44,10.31,10.31,0,0,0,1.8-.45v-.19a.93.93,0,0,0-.26-.76,1.6,1.6,0,0,0-1-.24,1.44,1.44,0,0,0-.78.2A1.41,1.41,0,0,0,83.39,26.09Zm2.49,1.51a8.92,8.92,0,0,1-1.13.29,3,3,0,0,0-1,.33.76.76,0,0,0-.37.65.91.91,0,0,0,.3.71,1,1,0,0,0,.74.28,1.63,1.63,0,0,0,1-.33,1.17,1.17,0,0,0,.45-.62,3.91,3.91,0,0,0,.07-.91Z"/><path class="cls-2" d="M93.31,21.27h2v5.26a9.72,9.72,0,0,0,.08,1.62,1.49,1.49,0,0,0,.6,1,2.11,2.11,0,0,0,1.29.36,2,2,0,0,0,1.26-.34,1.32,1.32,0,0,0,.51-.84,11.26,11.26,0,0,0,.08-1.65V21.27h2v5.11a12.66,12.66,0,0,1-.15,2.46,2.89,2.89,0,0,1-.59,1.22,2.83,2.83,0,0,1-1.11.79,4.91,4.91,0,0,1-1.86.3,5.13,5.13,0,0,1-2.12-.33A2.92,2.92,0,0,1,94.08,30a2.7,2.7,0,0,1-.55-1.08,11.9,11.9,0,0,1-.19-2.46Z"/><path class="cls-2" d="M109.5,31h-1.84V27.39a5.19,5.19,0,0,0-.12-1.47,1,1,0,0,0-.38-.52,1.15,1.15,0,0,0-.65-.19,1.52,1.52,0,0,0-.87.27,1.33,1.33,0,0,0-.52.71,5.86,5.86,0,0,0-.14,1.62V31h-1.86v-7h1.72v1a2.84,2.84,0,0,1,3.44-1,1.91,1.91,0,0,1,.78.56,2.1,2.1,0,0,1,.36.79,5.81,5.81,0,0,1,.11,1.25Z"/><path class="cls-2" d="M111.39,23V21.27h1.86V23Zm0,8v-7h1.86V31Z"/><path class="cls-2" d="M114.71,27.37a4,4,0,0,1,.46-1.8,3.16,3.16,0,0,1,1.29-1.32,3.85,3.85,0,0,1,1.88-.46,3.5,3.5,0,0,1,2.61,1,3.88,3.88,0,0,1,0,5.26,3.42,3.42,0,0,1-2.58,1.05,4.1,4.1,0,0,1-1.85-.44,2.89,2.89,0,0,1-1.33-1.28A4.3,4.3,0,0,1,114.71,27.37Zm1.91.1a2.31,2.31,0,0,0,.5,1.6,1.63,1.63,0,0,0,2.29.16c0-.05.11-.1.16-.16a2.4,2.4,0,0,0,.49-1.62,2.34,2.34,0,0,0-.49-1.59,1.63,1.63,0,0,0-2.29-.16,1.21,1.21,0,0,0-.16.16,2.34,2.34,0,0,0-.49,1.61Zm.78-4.38.92-2h2.11l-1.82,2Z"/><path class="cls-2" d="M129.84,31H128V27.39a6,6,0,0,0-.12-1.47,1.1,1.1,0,0,0-.38-.52,1.17,1.17,0,0,0-.65-.19,1.49,1.49,0,0,0-.87.27,1.35,1.35,0,0,0-.53.71,6.27,6.27,0,0,0-.14,1.62V31h-1.86v-7h1.73v1a2.81,2.81,0,0,1,2.32-1.2,2.88,2.88,0,0,1,1.12.23,1.87,1.87,0,0,1,.77.56,2.12,2.12,0,0,1,.37.79,5.81,5.81,0,0,1,.1,1.25Z"/><path class="cls-2" d="M135.51,31V21.27h7.19v1.64h-5.23v2.16h4.87v1.64h-4.87v2.63h5.45V31Z"/><path class="cls-2" d="M149.17,31V29.93a2.8,2.8,0,0,1-1,.89,2.89,2.89,0,0,1-1.32.32,2.57,2.57,0,0,1-1.27-.31,1.8,1.8,0,0,1-.81-.87,3.8,3.8,0,0,1-.26-1.56V24h1.86v3.23a8.92,8.92,0,0,0,.08,1.79,1,1,0,0,0,.37.53,1.2,1.2,0,0,0,.71.2,1.53,1.53,0,0,0,.86-.26,1.42,1.42,0,0,0,.51-.65,7.14,7.14,0,0,0,.14-1.9V24h1.86V31Z"/><path class="cls-2" d="M154.6,31h-1.86v-7h1.74v1a3,3,0,0,1,.79-.91,1.44,1.44,0,0,1,.81-.23,2.37,2.37,0,0,1,1.22.35l-.57,1.62a1.63,1.63,0,0,0-.88-.3,1,1,0,0,0-.66.22,1.4,1.4,0,0,0-.42.77,11,11,0,0,0-.17,2.36Z"/><path class="cls-2" d="M157.67,27.37a3.79,3.79,0,0,1,.46-1.8,3.12,3.12,0,0,1,1.3-1.32,3.78,3.78,0,0,1,1.87-.46,3.52,3.52,0,0,1,3.63,3.66,3.61,3.61,0,0,1-1,2.64,3.54,3.54,0,0,1-2.59,1.05,4.13,4.13,0,0,1-1.85-.44,2.94,2.94,0,0,1-1.33-1.28A4.28,4.28,0,0,1,157.67,27.37Zm1.91.1a2.31,2.31,0,0,0,.5,1.6,1.61,1.61,0,0,0,2.44,0,2.36,2.36,0,0,0,.5-1.62,2.35,2.35,0,0,0-.5-1.59,1.61,1.61,0,0,0-2.44,0A2.35,2.35,0,0,0,159.58,27.47Z"/><path class="cls-2" d="M166.34,24h1.73v1a2.62,2.62,0,0,1,.92-.86,2.48,2.48,0,0,1,1.27-.33,2.69,2.69,0,0,1,2.12,1,3.88,3.88,0,0,1,.85,2.68,4,4,0,0,1-.86,2.73,2.64,2.64,0,0,1-2.11,1,2.28,2.28,0,0,1-1.06-.23,3.36,3.36,0,0,1-1-.8v3.53h-1.86Zm1.84,3.4a2.66,2.66,0,0,0,.47,1.75,1.42,1.42,0,0,0,1.14.57,1.35,1.35,0,0,0,1.08-.52,2.73,2.73,0,0,0,.43-1.71,2.58,2.58,0,0,0-.44-1.64,1.39,1.39,0,0,0-1.1-.54,1.41,1.41,0,0,0-1.13.53A2.24,2.24,0,0,0,168.18,27.35Z"/><path class="cls-2" d="M178.74,28.74l1.86.32a3,3,0,0,1-1.13,1.55,3.3,3.3,0,0,1-1.93.53,3.15,3.15,0,0,1-2.72-1.2,4,4,0,0,1-.7-2.42,3.89,3.89,0,0,1,.91-2.74,3,3,0,0,1,2.31-1,3.09,3.09,0,0,1,2.48,1,4.54,4.54,0,0,1,.86,3.17h-4.63a1.9,1.9,0,0,0,.45,1.29,1.42,1.42,0,0,0,1.07.46,1.13,1.13,0,0,0,.71-.24A1.4,1.4,0,0,0,178.74,28.74Zm.13-1.88a1.81,1.81,0,0,0-.41-1.23,1.35,1.35,0,0,0-2,0,1.72,1.72,0,0,0-.43,1.21Z"/><path class="cls-2" d="M183.61,26.09l-1.69-.3a2.61,2.61,0,0,1,1-1.51,3.54,3.54,0,0,1,2.06-.49,4.38,4.38,0,0,1,1.86.29,2,2,0,0,1,.86.75,4,4,0,0,1,.24,1.67v2.17A7,7,0,0,0,188,30a3.51,3.51,0,0,0,.33.94h-1.86a5.07,5.07,0,0,1-.18-.55.68.68,0,0,0-.06-.21,3.61,3.61,0,0,1-1,.7,2.87,2.87,0,0,1-1.16.24,2.4,2.4,0,0,1-1.71-.6,1.93,1.93,0,0,1-.62-1.48A2,2,0,0,1,182,28a1.81,1.81,0,0,1,.8-.7,5.87,5.87,0,0,1,1.48-.44,11.4,11.4,0,0,0,1.81-.45v-.19a.94.94,0,0,0-.27-.76,1.6,1.6,0,0,0-1-.24,1.13,1.13,0,0,0-1.22.89Zm2.49,1.51a9.07,9.07,0,0,1-1.14.29,3.07,3.07,0,0,0-1,.33.77.77,0,0,0-.36.65.91.91,0,0,0,.29.71,1,1,0,0,0,.7.28,1.69,1.69,0,0,0,1-.33,1.21,1.21,0,0,0,.44-.62,4,4,0,0,0,.07-.91Z"/><text class="cls-3" transform="translate(77.36 48.45)">NextGenerationEU</text></g></svg>