<svg xmlns="http://www.w3.org/2000/svg" width="149" height="73" viewBox="0 0 149 73">
    <g fill="none" fill-rule="evenodd">
        <path fill="#354092" d="M76.715 72.265h71.945V.718H76.715v71.547zm2.514-2.516h66.918V3.24H79.23v66.51z"/>
        <path fill="#354092" d="M87.978 58.279H89.3c.435 0 .677.17.677.632 0 .414-.29.64-.677.64h-1.322v-1.272zm-.818 3.953h2.133c1.198 0 1.708-.56 1.708-1.285 0-.628-.304-1.067-.873-1.184v-.017c.422-.183.667-.518.667-.98 0-.77-.549-1.146-1.382-1.146H87.16v4.612zm.818-2.102h1.435c.485 0 .774.256.774.711 0 .468-.29.733-.774.733h-1.435V60.13zM94.435 59.767c0-.699-.684-.962-1.34-.962-.74 0-1.472.244-1.524 1.107h.738c.034-.362.324-.525.745-.525.288 0 .69.07.69.446 0 .435-.473.376-1.007.475-.625.072-1.298.204-1.298 1.041 0 .652.553.966 1.154.966.395 0 .87-.118 1.166-.4.059.303.269.4.572.4.118 0 .356-.038.462-.077v-.514c-.073.014-.134.014-.18.014-.137 0-.178-.066-.178-.25v-1.72zm-.735 1.346c0 .46-.508.625-.83.625-.264 0-.686-.093-.686-.43 0-.381.29-.5.605-.553.323-.06.686-.045.91-.198v.556zM95.232 62.232h.745v-1.588c0-.738.403-1.14.91-1.14.097 0 .21.019.315.025v-.704c-.066-.011-.113-.02-.28-.02-.458 0-.897.375-.977.732h-.02v-.646h-.693v3.34zM100.41 60.012c-.081-.823-.738-1.208-1.514-1.208-1.108 0-1.653.787-1.653 1.795 0 .98.573 1.716 1.626 1.716.862 0 1.4-.472 1.542-1.336h-.746c-.065.474-.369.759-.796.759-.646 0-.888-.587-.888-1.14 0-1.016.538-1.211.921-1.211.408 0 .704.215.763.625h.746zM101.583 60.268c.025-.5.374-.882.888-.882.494 0 .817.415.842.882h-1.73zm2.469.487c.123-1.009-.529-1.95-1.581-1.95-1 0-1.625.811-1.625 1.76 0 1.028.593 1.75 1.643 1.75.733 0 1.358-.4 1.517-1.131h-.698c-.133.368-.39.553-.819.553-.619 0-.906-.461-.906-.982h2.469zM104.638 62.232h.738v-4.611h-.738zM107.72 62.315c1.08 0 1.692-.73 1.692-1.757 0-1.021-.613-1.754-1.693-1.754s-1.698.733-1.698 1.754c0 1.028.618 1.757 1.698 1.757m0-.577c-.656 0-.953-.6-.953-1.18 0-.574.297-1.171.953-1.171.666 0 .956.597.956 1.17 0 .58-.29 1.18-.956 1.18M110.031 62.232h.735V60.26c0-.494.32-.874.81-.874.439 0 .65.222.662.743v2.102h.737v-2.293c0-.75-.463-1.134-1.185-1.134-.441 0-.828.224-1.046.587l-.016-.005v-.496h-.697v3.34zM116.563 59.767c0-.699-.683-.962-1.342-.962-.737 0-1.475.244-1.53 1.107h.746c.032-.362.321-.525.738-.525.301 0 .698.07.698.446 0 .435-.474.376-1.008.475-.625.072-1.29.204-1.29 1.041 0 .652.545.966 1.145.966.396 0 .87-.118 1.166-.4.06.303.27.4.566.4.125 0 .363-.038.467-.077v-.514c-.073.014-.13.014-.177.014-.138 0-.179-.066-.179-.25v-1.72zm-.738 1.346c0 .46-.505.625-.83.625-.261 0-.683-.093-.683-.43 0-.381.284-.5.607-.553.322-.06.681-.045.906-.198v.556zM92.506 35.707h-1.27v2.92h-.02c-.388-.628-1.191-.898-1.916-.898-1.256 0-2.49.91-2.49 2.98 0 1.712.877 3.055 2.693 3.055.718 0 1.443-.276 1.778-.935h.02v.778h1.205v-7.9zm-4.43 5.107c0-1.034.427-2.09 1.611-2.09.982 0 1.594.757 1.594 2.016 0 1.002-.48 2.03-1.614 2.03-1.098 0-1.592-.974-1.592-1.956zM94.983 40.247c.032-.856.64-1.522 1.515-1.522.863 0 1.403.724 1.449 1.522h-2.964zm4.234.824c.21-1.714-.9-3.342-2.72-3.342-1.713 0-2.78 1.397-2.78 3.025 0 1.76 1.008 3.01 2.812 3.01 1.259 0 2.326-.697 2.611-1.948h-1.207c-.219.63-.663.954-1.404.954-1.059 0-1.546-.804-1.546-1.7h4.234zM103.189 40.978c.033 1.957 1.508 2.82 3.318 2.82 1.58 0 3.161-.711 3.161-2.477 0-.823-.5-1.714-1.546-2.017-.414-.124-2.166-.58-2.293-.612-.567-.151-.947-.462-.947-1.014 0-.797.81-1.029 1.461-1.029.955 0 1.648.37 1.713 1.39h1.388c0-1.647-1.388-2.522-3.05-2.522-1.435 0-2.902.743-2.902 2.324 0 .825.4 1.64 1.757 2.003 1.094.296 1.818.44 2.373.654.322.124.659.36.659.973 0 .6-.455 1.192-1.68 1.192-1.122 0-2.016-.473-2.016-1.685h-1.396zM115.635 39.39c0-1.207-1.184-1.661-2.303-1.661-1.272 0-2.529.436-2.618 1.906h1.266c.06-.62.56-.91 1.273-.91.512 0 1.19.124 1.19.777 0 .744-.81.638-1.725.81-1.073.118-2.214.349-2.214 1.786 0 1.114.93 1.666 1.966 1.666.683 0 1.494-.21 1.994-.697.098.52.467.697.98.697.211 0 .615-.078.804-.144v-.876c-.138.026-.238.026-.316.026-.232 0-.297-.126-.297-.435V39.39zm-1.27 2.292c0 .798-.87 1.088-1.422 1.088-.449 0-1.173-.173-1.173-.731 0-.667.487-.87 1.035-.957.559-.097 1.17-.085 1.56-.342v.942zM117.143 43.607h1.27v-7.9h-1.27zM124.955 37.887h-1.271v3.315c0 .895-.358 1.568-1.41 1.568-.693 0-1.108-.37-1.108-1.37v-3.513h-1.263v3.63c0 1.49.645 2.248 2.146 2.248.634 0 1.325-.383 1.635-.955h.025v.796h1.246v-5.719zM125.824 38.83h.955v3.373c.018.948.263 1.457 1.595 1.457.276 0 .538-.04.821-.068v-.967c-.18.038-.355.038-.532.038-.569 0-.613-.262-.613-.782v-3.05h1.145v-.943h-1.145v-1.72h-1.271v1.72h-.955v.943zM87.265 34.382h1.39v-3.017h2.12c2.265.007 2.7-1.455 2.7-2.43 0-.989-.435-2.451-2.7-2.451h-3.51v7.898zm1.39-6.771h2.063c.735 0 1.367.269 1.367 1.31 0 1.001-.77 1.311-1.388 1.311h-2.042v-2.621zM99.44 30.167c0-1.205-1.179-1.66-2.304-1.66-1.27 0-2.522.435-2.615 1.903h1.272c.053-.619.552-.909 1.267-.909.511 0 1.19.124 1.19.777 0 .739-.81.645-1.725.804-1.07.126-2.214.356-2.214 1.785 0 1.121.934 1.674 1.97 1.674.68 0 1.487-.21 1.987-.698.104.52.47.698.983.698a3 3 0 0 0 .804-.152v-.87c-.134.028-.238.028-.31.028-.238 0-.304-.125-.304-.436v-2.944zm-1.27 2.292c0 .797-.868 1.088-1.421 1.088-.448 0-1.173-.173-1.173-.732 0-.666.494-.862 1.035-.956.557-.097 1.17-.086 1.56-.342v.942zM100.918 34.382h1.27v-2.72c0-1.264.686-1.955 1.553-1.955.18 0 .369.032.548.05v-1.218c-.107-.005-.192-.033-.483-.033-.776 0-1.532.65-1.677 1.266h-.02v-1.107h-1.191v5.717zM109.893 30.574c-.118-1.402-1.26-2.068-2.588-2.068-1.898 0-2.84 1.35-2.84 3.076 0 1.681.99 2.958 2.788 2.958 1.481 0 2.409-.817 2.64-2.305h-1.264c-.125.824-.637 1.311-1.376 1.311-1.1 0-1.522-1.008-1.522-1.964 0-1.732.921-2.081 1.58-2.081.707 0 1.212.375 1.318 1.073h1.264zM87.233 56.045h3.245v-5.957c0-.553-.015-.703-.06-1.31.259 1.014.272 1.034.504 1.819l1.665 5.448h2.54l1.794-5.758c.209-.698.242-.837.419-1.561-.059.824-.07 1.002-.086 1.712v5.607h3.256v-9.698h-4.895l-1.223 4.164c-.244.934-.305 1.18-.502 2.38a22.235 22.235 0 0 0-.447-2.064l-1.331-4.48h-4.879v9.698zM108.41 52.532h-2.323l1.177-3.425 1.146 3.425zm-7.203 3.513h3.666l.475-1.343h3.762l.473 1.343h3.674l-4.036-9.699h-3.884l-4.13 9.699zM118.837 48.383c.6 0 1.665.027 1.665 1.132 0 1.094-1.086 1.122-1.645 1.122h-1.43v-2.254h1.41zm-4.828 7.662h3.419v-3.412h1.012l2.094 3.412h3.795l-2.628-3.913c.5-.177.955-.329 1.39-.746.777-.71.824-1.567.824-1.942 0-.922-.428-2.24-1.865-2.793-.66-.25-1.64-.305-2.66-.305h-5.381v9.699zM138.19 56.052c-2.245-1.028-4.548-1.494-6.986-1.494-2.444 0-4.545.466-6.888 1.494v2.372c2.529-.901 4.569-1.232 6.888-1.232 2.356 0 4.517.33 6.987 1.232v-2.372z"/>
        <path fill="#EB6D24" d="M.755 72.312h71.93V.726H.756z"/>
        <path fill="#FEFEFE" d="M9.903 53.219h1.522v-2.852h2.903v-1.18h-2.903v-1.588h3.35v-1.277H9.904zM17.18 47.5h1.184c.707 0 1.34.158 1.34 1.034 0 .877-.633 1.035-1.34 1.035h-1.183V47.5zm-1.52 5.718h1.52v-2.47h1.6c1.727 0 2.399-1.095 2.399-2.214 0-1.12-.672-2.213-2.4-2.213h-3.12v6.897zM24.385 50.925c-.02 1.7 1.416 2.453 2.958 2.453 1.876 0 2.877-.943 2.877-2.208 0-1.56-1.556-1.885-2.053-2.01-1.741-.44-2.07-.515-2.07-1.04 0-.58.56-.785 1.049-.785.724 0 1.315.212 1.36 1.042h1.483c0-1.596-1.331-2.214-2.778-2.214-1.252 0-2.588.671-2.588 2.082 0 1.29 1.033 1.687 2.068 1.962 1.013.264 2.052.39 2.052 1.14 0 .699-.814.857-1.349.857-.815 0-1.532-.362-1.532-1.279h-1.477zM32.297 49.76c.05-.54.387-.75.905-.75.487 0 .899.085.899.678 0 .554-.786.527-1.635.652-.849.112-1.707.387-1.707 1.515 0 1.022.759 1.495 1.707 1.495.612 0 1.257-.163 1.692-.618.008.164.047.33.099.487h1.395c-.124-.204-.17-.66-.17-1.114v-2.596c0-1.2-1.204-1.416-2.214-1.416-1.119 0-2.272.383-2.35 1.667h1.379zm1.804 1.522c0 .303-.04 1.153-1.123 1.153-.44 0-.842-.127-.842-.64 0-.5.389-.644.817-.73.429-.08.917-.093 1.148-.29v.507zM36.542 53.219h1.376v-2.622c0-1.008.324-1.424 1.074-1.424.639 0 .876.401.876 1.226v2.82h1.384v-3.076c0-1.234-.37-2.05-1.839-2.05-.58 0-1.18.263-1.529.825h-.031v-.694h-1.311v4.995zM42.338 47.454h1.375v-1.132h-1.375v1.132zm0 5.765h1.375v-4.995h-1.375v4.995zM46.545 46.73H45.16v1.494h-.828v.916h.828v2.947c0 .994.746 1.184 1.59 1.184.27 0 .573-.004.803-.046v-1.073a1.917 1.917 0 0 1-.42.039c-.478 0-.59-.112-.59-.58V49.14h1.01v-.916h-1.01V46.73zM49.53 49.76c.05-.54.388-.75.914-.75.487 0 .896.085.896.678 0 .554-.79.527-1.634.652-.856.112-1.712.387-1.712 1.515 0 1.022.763 1.495 1.712 1.495.614 0 1.252-.163 1.687-.618.013.164.052.33.097.487h1.4c-.128-.204-.173-.66-.173-1.114v-2.596c0-1.2-1.207-1.416-2.208-1.416-1.125 0-2.277.383-2.356 1.667h1.376zm1.81 1.522c0 .303-.045 1.153-1.12 1.153-.446 0-.85-.127-.85-.64 0-.5.397-.644.818-.73.428-.08.914-.093 1.152-.29v.507zm-1.086-3.676h.953l-.928-1.37h-1.522l1.497 1.37zM53.783 53.219h1.377v-2.254c0-.877.349-1.6 1.357-1.6.162 0 .368.02.49.046v-1.273a1.121 1.121 0 0 0-.293-.045c-.671 0-1.35.434-1.605 1.062h-.015v-.93h-1.31v4.994zM57.597 47.454h1.37v-1.132h-1.37v1.132zm0 5.765h1.37v-4.995h-1.37v4.995zM61.376 49.76c.046-.54.389-.75.916-.75.48 0 .888.085.888.678 0 .554-.788.527-1.633.652-.848.112-1.704.387-1.704 1.515 0 1.022.756 1.495 1.704 1.495.614 0 1.253-.163 1.694-.618.005.164.045.33.091.487h1.404c-.125-.204-.18-.66-.18-1.114v-2.596c0-1.2-1.197-1.416-2.198-1.416-1.127 0-2.284.383-2.36 1.667h1.378zm1.804 1.522c0 .303-.039 1.153-1.118 1.153-.442 0-.843-.127-.843-.64 0-.5.387-.644.815-.73.429-.08.917-.093 1.146-.29v.507zM11.425 38.079h1.429c.548 0 1.048.138 1.048.79 0 .58-.396.825-.937.825h-1.54V38.08zm-1.522 5.713h3.351c1.26 0 2.452-.601 2.452-1.996 0-.859-.43-1.502-1.27-1.746.603-.29.94-.764.94-1.437 0-1.284-.89-1.712-2.214-1.712H9.903v6.89zm1.522-3.064h1.66c.65 0 1.091.275 1.091.982 0 .711-.519.908-1.12.908h-1.631v-1.89zM17.812 41.301c0-.797.276-1.595 1.208-1.595.945 0 1.224.798 1.224 1.595 0 .796-.279 1.593-1.224 1.593-.932 0-1.208-.797-1.208-1.593m-1.38 0c0 1.588 1.018 2.628 2.588 2.628 1.584 0 2.598-1.04 2.598-2.628 0-1.589-1.014-2.635-2.598-2.635-1.57 0-2.589 1.046-2.589 2.635M22.515 43.791h1.374v-2.609c0-1.022.326-1.436 1.069-1.436.646 0 .888.41.888 1.232v2.813h1.376v-3.063c0-1.238-.367-2.063-1.836-2.063-.58 0-1.18.278-1.536.83h-.026v-.69h-1.31v4.986zM29.589 40.34c.044-.542.382-.753.908-.753.486 0 .896.086.896.672 0 .56-.783.534-1.635.66-.849.111-1.705.382-1.705 1.516 0 1.021.759 1.494 1.705 1.494.614 0 1.252-.165 1.692-.61.008.155.047.321.1.473h1.397c-.125-.204-.18-.653-.18-1.108v-2.596c0-1.198-1.205-1.422-2.198-1.422-1.125 0-2.284.396-2.357 1.673h1.377zm1.804 1.521c0 .304-.041 1.151-1.117 1.151-.452 0-.846-.123-.846-.638 0-.499.387-.643.817-.73.427-.08.915-.086 1.146-.292v.51zM33.836 43.791h1.377v-2.609c0-1.022.324-1.436 1.066-1.436.646 0 .888.41.888 1.232v2.813h1.377v-3.063c0-1.238-.37-2.063-1.837-2.063-.58 0-1.18.278-1.535.83h-.025v-.69h-1.311v4.986zM40.81 41.301c0-.797.283-1.595 1.218-1.595.942 0 1.22.798 1.22 1.595 0 .796-.278 1.593-1.22 1.593-.935 0-1.218-.797-1.218-1.593m-1.377 0c0 1.588 1.02 2.628 2.595 2.628 1.58 0 2.602-1.04 2.602-2.628 0-1.589-1.022-2.635-2.602-2.635-1.576 0-2.595 1.046-2.595 2.635M49.991 38.804h-1.363l-1.062 3.407h-.018l-1.062-3.407h-1.448l1.72 4.987h1.533zM51.872 40.34c.055-.542.397-.753.917-.753.487 0 .897.086.897.672 0 .56-.785.534-1.628.66-.862.111-1.713.382-1.713 1.516 0 1.021.758 1.494 1.713 1.494.605 0 1.253-.165 1.684-.61.007.155.048.321.1.473h1.397c-.13-.204-.178-.653-.178-1.108v-2.596c0-1.198-1.205-1.422-2.2-1.422-1.13 0-2.286.396-2.363 1.673h1.374zm1.814 1.521c0 .304-.043 1.151-1.12 1.151-.449 0-.845-.123-.845-.638 0-.499.39-.643.82-.73.425-.08.912-.086 1.145-.292v.51zM9.903 34.378h1.522v-6.893H9.903zM12.616 34.378H14V31.76c0-1.015.316-1.43 1.068-1.43.639 0 .881.402.881 1.226v2.82h1.377v-3.07c0-1.24-.37-2.055-1.832-2.055-.584 0-1.185.263-1.533.83h-.034v-.699h-1.31v4.995zM18.129 32.75c.059 1.322 1.191 1.757 2.357 1.757 1.146 0 2.292-.42 2.292-1.738 0-.921-.784-1.212-1.595-1.397-.783-.184-1.56-.25-1.56-.743 0-.41.456-.462.764-.462.503 0 .908.145.941.673h1.318c-.11-1.227-1.119-1.588-2.219-1.588-1.075 0-2.18.328-2.18 1.599 0 .877.797 1.152 1.587 1.331.995.211 1.567.357 1.567.771 0 .481-.507.632-.903.632-.544 0-1.05-.236-1.058-.836h-1.311zM25.327 27.886h-1.379v1.497h-.835v.915h.835v2.945c0 .994.74 1.193 1.585 1.193.268 0 .57-.013.808-.054v-1.073c-.151.027-.282.04-.428.04-.468 0-.586-.113-.586-.58V30.3h1.014v-.916h-1.014v-1.497zM27.032 28.61h1.38v-1.125h-1.38v1.125zm0 5.768h1.38v-4.995h-1.38v4.995zM31.241 27.886h-1.376v1.497h-.838v.915h.838v2.945c0 .994.737 1.193 1.58 1.193.27 0 .573-.013.804-.054v-1.073c-.145.027-.276.04-.424.04-.466 0-.584-.113-.584-.58V30.3h1.008v-.916H31.24v-1.497zM37.615 29.383h-1.377v2.614c0 1.015-.321 1.432-1.066 1.432-.646 0-.89-.403-.89-1.228v-2.818h-1.374v3.07c0 1.231.367 2.054 1.836 2.054.58 0 1.18-.27 1.536-.828h.024v.698h1.311v-4.994zM40.409 27.886H39.03v1.497h-.836v.915h.836v2.945c0 .994.74 1.193 1.583 1.193.269 0 .573-.013.803-.054v-1.073c-.144.027-.278.04-.43.04-.46 0-.577-.113-.577-.58V30.3h1.007v-.916H40.41v-1.497z"/>
    </g>
</svg>
