<svg xmlns="http://www.w3.org/2000/svg" viewBox="0 0 231.79 231.79"><defs><style>.cls-1{fill:#00d9d1;}.cls-2{fill:#00827d;}.cls-3{fill:none;}</style></defs><g id="Capa_2" data-name="Capa 2"><g id="Capa_2-2" data-name="Capa 2"><path d="M119.47,198.56h-3.08v3.51h-.84v-9.41h4.13c2.51,0,4.24,1.06,4.24,2.88v0C123.92,197.54,121.85,198.56,119.47,198.56Zm3.6-3c0-1.5-1.4-2.28-3.45-2.28h-3.23v4.62h3.13c2.12,0,3.55-.92,3.55-2.32Z"/><path d="M134.64,202.07l-3.64-3.9h-3.73v3.9h-.84v-9.41h4.79c2.46,0,4.07,1.1,4.07,2.67v0c0,1.57-1.42,2.48-3.34,2.69l3.76,4Zm-.2-6.71c0-1.26-1.2-2.06-3.27-2.06h-3.9v4.24h3.85c1.9,0,3.32-.79,3.32-2.15Z"/><path d="M143.42,202.23c-3.46,0-5.72-2.27-5.72-4.84v0c0-2.57,2.29-4.87,5.75-4.87s5.72,2.27,5.72,4.84c0,0,0,0,0,0C149.17,199.93,146.87,202.23,143.42,202.23Zm4.87-4.86c0-2.33-2.06-4.24-4.87-4.24s-4.84,1.88-4.84,4.21v0c0,2.32,2,4.23,4.87,4.23s4.84-1.88,4.84-4.21Z"/><path d="M153.94,202.21a3.88,3.88,0,0,1-3.46-1.77l.7-.36a3.12,3.12,0,0,0,2.81,1.49,2.33,2.33,0,0,0,2.47-2.51v-6.4h.85V199A3.07,3.07,0,0,1,153.94,202.21Z"/><path d="M160.52,202.07v-9.41h8.11v.64h-7.27V197h6.54v.65h-6.54v3.78h7.35v.64Z"/><path d="M176.59,202.23c-3.25,0-5.66-2.14-5.66-4.84v0c0-2.67,2.41-4.87,5.7-4.87a6.76,6.76,0,0,1,4.43,1.5l-.61.51a5.78,5.78,0,0,0-3.84-1.38c-2.74,0-4.8,1.84-4.8,4.21v0c0,2.37,2.1,4.23,4.82,4.23a5.7,5.7,0,0,0,3.92-1.47l.57.46A6.64,6.64,0,0,1,176.59,202.23Z"/><path d="M187.46,193.3v8.77h-.85V193.3h-4v-.64h8.79v.64Z"/><path d="M197.64,202.21a7.24,7.24,0,0,1-4.59-1.51l.55-.52a6.19,6.19,0,0,0,4.09,1.39c1.71,0,2.88-.79,2.88-1.87v0c0-1-.63-1.58-3.22-2s-3.85-1.22-3.85-2.64v0c0-1.4,1.55-2.47,3.67-2.47a6.44,6.44,0,0,1,3.91,1.14l-.54.55a5.54,5.54,0,0,0-3.41-1.06c-1.67,0-2.78.79-2.78,1.77v0c0,1,.62,1.6,3.32,2.06s3.75,1.22,3.75,2.59v0C201.42,201.16,199.84,202.21,197.64,202.21Z"/><path d="M104.43,188.77c-5.31,0-9.07-3-9.91-7.42-1.29-6.74,3.77-12.18,10.63-11.47,3.8.39,6.57,2.25,7.91,5.82a9.3,9.3,0,0,1-1.81,10.07,9.11,9.11,0,0,1-6.82,3m-.37-16.35c-3.68,0-6.5,3-6.54,7a6.75,6.75,0,0,0,6.54,6.84c3.44,0,6.55-3.24,6.57-6.87a6.88,6.88,0,0,0-6.57-6.92"/><path d="M64.44,174.26v-4.41h2.85V188.7c-4.44-3.82-9.54-8.07-13.91-11.84l0,2c0,3.26,0,6.52,0,9.85H50.48V170.46c4.48,4,9.42,8.23,13.94,12.27Z"/><path d="M86.41,174.26v-4.41h2.85V188.7c-4.44-3.82-9.54-8.07-13.91-11.84l0,2c0,3.26,0,6.52,0,9.85H72.44V170.46c4.49,4,9.43,8.23,14,12.27Z"/><path d="M201.4,188.74c-1.12,0-2.11,0-3.09,0-.23,0-.5-.32-.63-.56-2-3.39-6.26-10.86-6.46-11.19-.41.4-4.53,8-6.36,11.23a.94.94,0,0,1-1,.56c-.91,0-1.82,0-2.9,0l10.26-18.41,10.16,18.4"/><path d="M116.25,188.75l10.26-18.4c3.4,6.17,6.75,12.24,10.15,18.39-1.14,0-2.15,0-3.15,0-.2,0-.44-.32-.57-.54-1.9-3.33-3.78-6.67-5.67-10l-.71-1.23-.39.64c-2,3.53-4,7.06-6,10.61a.94.94,0,0,1-1,.56c-.9,0-1.82,0-2.91,0"/><rect x="42.34" y="169.85" width="2.91" height="18.85"/><path d="M153.58,169.76a5,5,0,0,1,2,.53,5.53,5.53,0,0,1,2.8,4.9,5.4,5.4,0,0,1-2.64,4.69,6.52,6.52,0,0,1-2.58.92l5.27,4.57v3.28L149,180.58h-4.69v8.07h-2.91V169.81Zm-9.42,2.63v5.1h9.29a2.44,2.44,0,0,0,1.88-2.79,2.5,2.5,0,0,0-2.21-2.25Z"/><polygon points="177.38 172.72 177.38 169.81 163.71 169.81 163.71 188.71 177.38 188.71 177.38 185.96 166.94 185.96 166.94 180.79 174.19 180.71 174.19 177.7 166.99 177.78 166.99 172.72 177.38 172.72"/><polygon class="cls-1" points="120.65 115.56 97.81 115.56 113.79 87.88 129.78 60.2 129.78 60.2 113.79 32.52 49.87 143.24 136.63 143.24 120.65 115.56"/><polygon class="cls-2" points="129.78 60.2 113.79 87.88 129.78 115.56 145.75 143.24 177.72 143.24 129.78 60.2"/><rect class="cls-3" width="231.79" height="231.79"/></g></g></svg>